<?xml version="1.0" encoding="UTF-8" standalone="no"?>
<!DOCTYPE svg PUBLIC "-//W3C//DTD SVG 1.1//EN" "http://www.w3.org/Graphics/SVG/1.1/DTD/svg11.dtd">
<svg width="100%" height="100%" viewBox="0 0 844 797" version="1.1" xmlns="http://www.w3.org/2000/svg" xmlns:xlink="http://www.w3.org/1999/xlink" xml:space="preserve" xmlns:serif="http://www.serif.com/" style="fill-rule:evenodd;clip-rule:evenodd;">
    <g transform="matrix(1.47017,0,0,1.47017,-225.244,-157.696)">
        <g id="Auswahl--3" serif:id="Auswahl #3">
            <path d="M507.359,120C507.359,116.594 506.953,112.869 509.591,110.232C511.501,108.321 514.115,107.731 516.719,107.76C517.398,107.769 518.667,107.774 519.114,108.374C519.507,108.907 519.359,111.979 519.359,112.8C518.437,112.447 517.484,112.056 516.479,112.161C512.367,112.588 512.879,117.038 512.879,120L518.639,120L518.394,123.936L516.479,124.32L512.879,124.32L512.879,144.24L507.359,144.24L507.359,124.32L503.279,124.32L503.279,120L507.359,120ZM445.919,108.24L451.439,108.24L451.439,144.24L445.919,144.24L445.679,140.16C442.657,146.316 433.144,146.296 429.57,140.16C426.81,135.422 427.374,127.123 430.912,122.882C433.895,119.306 440.197,118.308 443.989,121.149C444.829,121.778 445.321,122.52 445.919,123.36L445.919,108.24ZM312.479,110.4L317.999,110.4L317.999,124.56L334.079,124.56L334.079,110.4L339.599,110.4L339.599,144.24L334.079,144.24L334.079,129.6L317.999,129.6L317.999,144.24L312.479,144.24L312.479,110.4ZM348.239,126.48L348.239,123.36C348.241,122.86 348.208,122.208 348.484,121.773C349.026,120.924 351.565,120.22 352.559,120.002C356.377,119.172 361.773,118.989 364.432,122.4C365.771,124.118 366.213,126.741 366.239,128.88L366.239,144.24L360.719,144.24L360.479,140.64C358.257,144.945 351.669,146.191 348.004,142.989C344.944,140.318 345.028,134.215 348.249,131.702C349.396,130.807 350.682,130.312 352.079,129.955L360.959,128.64C360.649,127.413 360.616,126.36 359.807,125.301C357.933,122.846 353.802,123.525 351.359,124.634C350.053,125.227 349.41,125.748 348.239,126.48ZM406.799,124.08C409.633,118.308 418.559,117.861 421.444,123.36C422.816,125.978 422.639,128.908 422.639,131.76L422.639,144.24L417.119,144.24L417.119,130.08C417.095,128.205 416.682,126.16 415.177,124.893C412.408,122.565 408.606,124.55 407.257,127.44C406.345,129.398 406.559,131.58 406.559,133.68L406.559,144.24L401.039,144.24L401.039,120L406.559,120L406.799,124.08ZM467.999,119.623C471.824,119.15 476.283,119.942 478.995,122.889C481.842,125.983 481.938,129.285 481.919,133.2C481.899,137.474 479.706,141.254 475.919,143.304C473.85,144.424 471.277,144.746 468.959,144.72C465.899,144.684 462.517,143.577 460.359,141.338C456.215,137.035 456.066,128.469 459.723,123.84C461.924,121.056 464.66,120.17 467.999,119.623ZM493.439,124.8C493.95,122.071 496.35,119.654 499.199,119.529C499.839,119.5 500.965,119.503 501.455,119.964C502.083,120.556 501.839,124.06 501.839,125.04C500.965,124.704 500.147,124.389 499.199,124.344C496.393,124.212 494.425,126.652 493.688,129.12C493.069,131.191 493.199,133.231 493.199,135.36L493.199,144.24L487.679,144.24L487.679,120L493.199,120L493.439,124.8ZM541.198,138.24L541.198,140.88C541.182,143.347 539.761,143.596 537.598,144.148C534.574,144.924 530.454,145.046 527.518,143.889C523.386,142.26 521.089,137.988 521.039,133.68C520.998,130.017 521.077,127.178 523.381,124.08C527.084,119.097 535.633,117.544 540.128,122.44C542.888,125.448 543.118,129.816 543.118,133.68L526.558,133.68C526.582,134.779 526.647,135.278 527.055,136.32C527.413,137.232 527.782,137.772 528.488,138.458C531.049,140.949 535.165,140.865 538.318,139.665L541.198,138.24ZM553.918,124.8C554.43,122.071 556.83,119.654 559.678,119.529C560.319,119.5 561.445,119.503 561.934,119.964C562.563,120.556 562.318,124.06 562.318,125.04C561.445,124.704 560.626,124.389 559.678,124.344C556.873,124.212 554.905,126.652 554.168,129.12C553.549,131.191 553.678,133.231 553.678,135.36L553.678,144.24L548.158,144.24L548.158,120L553.678,120L553.918,124.8ZM372.239,120L377.759,120L377.759,133.92C377.783,135.852 378.189,137.808 379.689,139.149C382.463,141.631 386.476,139.965 387.815,136.8C388.544,135.072 388.319,132.684 388.319,130.8L388.319,120L393.839,120L393.839,144.24L388.319,144.24L388.079,140.4C386.264,145.723 376.933,146.284 373.813,141.36C372.777,139.723 372.263,136.809 372.239,134.88L372.239,120ZM537.838,129.84C537.327,127.742 537.651,126.091 535.657,124.545C534.601,123.724 533.622,123.556 532.318,123.609C528.867,123.748 526.849,126.616 526.558,129.84L537.838,129.84ZM439.439,123.909C434.632,124.699 433.391,128.313 433.439,132.72C433.487,136.828 435.68,140.93 440.399,140.33C443.327,139.958 445.417,137.788 445.883,134.88L445.883,130.08C445.9,126.228 443.358,123.624 439.439,123.909ZM468.959,123.909C467.538,124.144 466.491,124.351 465.361,125.33C460.609,129.451 462.001,141.465 470.639,140.33C477.975,139.368 477.536,128.476 473.989,125.33C472.669,124.159 470.679,123.76 468.959,123.909ZM360.707,132.24L355.439,132.991C354.592,133.12 353.55,133.363 352.799,133.778C350.529,135.036 350.598,138.429 352.343,139.764C354.431,141.357 357.741,140.472 359.356,138.65C360.124,137.786 360.479,136.963 360.707,135.84C360.957,134.493 361.101,133.581 360.707,132.24ZM473.279,172.8L478.799,172.8L478.799,208.799L473.279,208.799L473.279,172.8ZM487.919,173.414C489.119,173.208 490.043,173.256 491.012,174.093C493.033,175.835 492.126,178.651 489.839,179.363C485.907,180.59 483.503,174.972 487.919,173.414ZM325.919,174.96L331.439,174.96L331.439,189.119L347.519,189.119L347.519,174.96L353.039,174.96L353.039,208.799L347.519,208.799L347.519,194.159L331.439,194.159L331.439,208.799L325.919,208.799L325.919,174.96ZM379.679,202.799L379.679,205.439C379.662,207.907 378.241,208.156 376.079,208.708C373.055,209.483 368.934,209.606 365.999,208.449C361.866,206.819 359.569,202.547 359.519,198.239C359.478,194.577 359.557,191.738 361.861,188.639C365.565,183.657 374.113,182.104 378.609,187C381.369,190.007 381.599,194.375 381.599,198.239L365.039,198.239C365.063,199.339 365.128,199.838 365.536,200.879C365.893,201.791 366.263,202.331 366.969,203.018C369.529,205.509 373.645,205.425 376.799,204.225L379.679,202.799ZM392.399,189.359C392.91,186.631 395.31,184.214 398.159,184.089C398.8,184.06 399.925,184.063 400.415,184.523C401.044,185.116 400.799,188.62 400.799,189.599C399.925,189.263 399.107,188.949 398.159,188.903C395.353,188.771 393.385,191.212 392.648,193.679C392.029,195.751 392.159,197.791 392.159,199.919L392.159,208.799L386.639,208.799L386.639,184.559L392.159,184.559L392.399,189.359ZM410.399,188.399C412.112,184.387 418.004,182.908 421.679,185.027C423.666,186.175 423.82,187.18 425.039,188.879C428.178,182.486 437.171,182.776 439.681,187.679C441.068,190.391 440.879,193.382 440.879,196.319L440.879,208.799L435.359,208.799L435.359,194.639C435.335,192.573 434.845,190.281 432.959,189.119C429.985,187.291 427.187,189.712 426.112,192.479C425.341,194.462 425.519,196.636 425.519,198.719L425.519,208.799L419.999,208.799L419.999,195.359C419.996,193.084 419.562,190.226 417.356,189.016C414.421,187.406 411.625,189.712 410.663,192.479C409.984,194.433 410.159,196.67 410.159,198.719L410.159,208.799L404.639,208.799L404.639,184.559L410.159,184.559L410.399,188.399ZM466.319,202.799L466.319,205.439C466.302,207.907 464.881,208.156 462.719,208.708C459.695,209.483 455.574,209.606 452.639,208.449C448.506,206.819 446.209,202.547 446.159,198.239C446.118,194.577 446.197,191.738 448.501,188.639C452.204,183.657 460.753,182.104 465.248,187C468.008,190.007 468.239,194.375 468.239,198.239L451.679,198.239C451.703,199.339 451.768,199.838 452.176,200.879C452.533,201.791 452.903,202.331 453.608,203.018C456.169,205.509 460.285,205.425 463.439,204.225L466.319,202.799ZM504.479,188.639C507.313,182.867 516.239,182.421 519.123,187.919C520.496,190.538 520.319,193.468 520.319,196.319L520.319,208.799L514.799,208.799L514.799,194.639C514.775,192.765 514.362,190.72 512.857,189.453C510.087,187.125 506.286,189.11 504.937,191.999C504.025,193.958 504.239,196.139 504.239,198.239L504.239,208.799L498.719,208.799L498.719,184.559L504.239,184.559L504.479,188.639ZM545.758,202.799L545.758,205.439C545.742,207.907 544.321,208.156 542.158,208.708C539.134,209.483 535.014,209.606 532.078,208.449C527.946,206.819 525.649,202.547 525.599,198.239C525.558,194.577 525.637,191.738 527.941,188.639C531.644,183.657 540.193,182.104 544.688,187C547.448,190.007 547.678,194.375 547.678,198.239L531.118,198.239C531.142,199.339 531.207,199.838 531.615,200.879C531.973,201.791 532.342,202.331 533.048,203.018C535.609,205.509 539.725,205.425 542.878,204.225L545.758,202.799ZM485.999,184.559L491.519,184.559L491.519,208.799L485.999,208.799L485.999,184.559ZM376.319,194.399C375.808,192.302 376.132,190.651 374.137,189.105C373.081,188.284 372.102,188.116 370.799,188.169C367.348,188.308 365.329,191.176 365.039,194.399L376.319,194.399ZM462.959,194.399C462.447,192.302 462.771,190.651 460.777,189.105C459.721,188.284 458.742,188.116 457.439,188.169C453.988,188.308 451.969,191.176 451.679,194.399L462.959,194.399ZM542.398,194.399C541.887,192.302 542.211,190.651 540.217,189.105C539.161,188.284 538.182,188.116 536.878,188.169C533.427,188.308 531.409,191.176 531.118,194.399L542.398,194.399ZM447.359,243.599C449.276,243.151 452.336,241.725 454.079,240.753C456.92,239.167 456.519,238.559 459.839,238.559L459.839,273.359L454.559,273.359L454.559,245.519C451.859,246.51 451.05,247.557 447.359,248.399L447.359,243.599ZM422.159,246.959L422.159,243.599C422.159,243.057 422.101,242.27 422.396,241.804C422.752,241.245 423.956,240.604 424.559,240.304C426.961,239.102 429.347,238.768 431.999,238.799C438.162,238.871 441.666,242.527 441.599,248.639C441.529,254.68 437.296,258.035 432.959,261.503C430.235,263.682 427.914,265.139 426.719,268.559L442.079,268.559L442.079,273.359L420.719,273.359C420.719,271.73 420.736,269.656 421.141,268.079C421.984,264.81 424.463,262.158 426.959,260.022C430.18,257.262 436.434,253.23 436.033,248.399C435.978,247.708 435.68,246.597 435.337,245.999C435.001,245.411 434.449,244.831 433.919,244.413C431.288,242.354 427.345,243.583 424.799,245.152L422.159,246.959ZM410.159,239.279L414.479,239.279L414.479,249.839L410.159,249.839L410.159,239.279ZM433.919,296.45L444.959,296.45L450.239,296.639L452.639,296.858L462.239,297.772C470.943,298.907 479.475,300.611 487.919,303.018C523.254,313.091 554.245,333.858 576.858,362.879C588.951,378.402 597.946,395.6 604.157,414.239C607.455,424.127 610.078,435.328 611.314,445.679L612.26,455.519L612.478,457.919L612.718,462.959L612.718,472.559L612.478,477.119L612.26,479.519L611.345,489.119C610.097,498.69 608.139,508.213 605.273,517.439C591.666,561.219 561.394,597.949 520.559,619.021C511.782,623.549 502.647,627.536 493.199,630.473C483.188,633.584 472.897,635.989 462.479,637.234L452.639,638.18L450.239,638.398L444.959,638.638L435.839,638.638L430.559,638.398L428.159,638.18L418.319,637.234C405.976,635.758 393.536,632.66 381.839,628.484C364.684,622.359 348.455,613.498 334.079,602.297C321.844,592.762 310.617,581.286 301.41,568.798C284.522,545.888 273.304,518.567 269.586,490.319L268.538,479.519L268.319,476.879L268.079,472.079L268.079,462.959L268.319,457.919L268.538,455.519L270.138,441.119C272.594,425.293 277.312,410.068 283.994,395.519C303.777,352.434 342.316,319.038 387.359,304.641C397.105,301.526 407.212,299.243 417.359,297.906L431.039,296.639C432.174,296.637 432.772,296.663 433.919,296.45ZM436.559,299.836C434.567,300.11 432.416,300.53 430.559,301.31C428.142,302.327 423.616,305.457 421.681,307.24C420.311,308.505 419.852,309.539 418.928,310.482L417.121,312.021L411.949,317.519C410.228,319.619 408.93,322.026 407.797,324.479L405.049,330.239C404.473,331.47 403.823,332.927 403.993,334.319C404.084,335.058 404.377,335.783 404.627,336.479C405.762,339.635 406.396,339.078 408.438,341.281L412.6,346.079L415.919,349.439C417.476,351.016 417.45,351.265 418.708,352.799L422.348,357.119L424.628,360.239L432.887,369.119C435.625,371.891 434.456,371.776 438.239,374.543C438.94,375.057 439.338,375.517 440.159,375.887C441.368,376.429 443.159,376.468 444.479,376.6L449.039,377.039L454.799,377.039L461.039,376.559L466.079,376.559L478.319,375.901L480.239,375.901L485.039,375.558L490.079,375.119C492.171,375.093 493.446,374.557 495.359,374.236C497.147,373.936 498.81,373.917 500.399,372.803C501.906,371.749 502.827,370.127 503.84,368.639L505.981,365.759L507.668,363.359L511.1,358.559L513.671,355.199L516.164,350.879C518.485,347.267 521.043,343.504 522.272,339.359C523.107,336.546 524.269,335.161 523.875,331.919C523.659,330.145 523.021,329.881 522.255,328.559C521.279,326.877 520.883,325.614 519.522,323.999C518.754,323.089 518.046,322.602 517.199,321.817C515.391,320.142 513.546,318.45 511.439,317.149L502.079,312.486L496.319,309.434C493.17,308.018 485.317,305.457 481.919,304.679L475.679,303.77L472.799,303.222L457.679,301.398L453.839,300.76L448.559,300.458L443.519,299.999L439.199,299.999L436.559,299.836ZM533.998,338.951C529.345,339.829 529.196,342.013 526.707,345.119L524.581,347.519L521.603,352.079L520.53,354.239L516.644,359.999L513.678,364.799C510.815,369.114 506.648,374.159 506.199,379.439C506.072,380.939 506.55,381.683 506.804,383.039C507.51,386.788 508.563,389.322 509.655,392.879L511.254,397.679L513.944,407.519L514.854,409.919L515.807,413.759L518.557,420.959L522.164,432.239L523.657,435.839C524.591,438.464 524.195,440.66 526.342,443.039C528.841,445.806 531.829,447.2 534.958,449.116L536.878,450.38L539.278,451.333L544.078,454.59L550.318,457.856L553.678,459.399L561.118,464.007L566.398,466.196L570.958,468.98C572.031,469.667 572.353,469.995 573.598,470.564L575.518,471.368C576.987,472.151 577.966,473.192 579.838,472.964C582.577,472.631 584.49,469.815 585.98,467.759L589.198,463.439L591.01,460.319L594.848,454.799C596.48,452.111 597.713,449.245 599.014,446.399L601.565,441.599C602.197,439.96 602.192,438.248 602.511,436.559L603.317,433.919L603.317,430.559C603.344,429.332 603.097,428.164 602.897,426.959L602.182,422.879L598.695,412.079L596.77,405.359L590.324,391.679L587.732,387.359L586.496,384.719L585.087,382.319L583.81,379.919L581.864,377.039L579.973,373.919L578.005,371.279L576.135,368.399L573.939,365.519L571.328,361.919L567.62,358.079L564.5,354.479L558.956,348.865C556.062,346.427 549.793,342.966 546.238,341.418L543.598,340.211C540.783,339.205 536.974,338.656 533.998,338.951ZM392.639,339.673C386.996,340.602 388.084,341.034 383.519,343.125L376.799,345.901L372.239,348.597L364.079,352.667C363.117,353.241 361.329,354.544 360.479,355.271L358.559,356.992L356.159,358.569L352.559,361.461C350.437,363.433 350.461,363.791 348.849,365.759L346.137,368.879L339.546,379.439L338.445,381.839L334.18,390.239L331.957,396.959L331.221,400.079L330.489,402.239L329.869,404.879L328.477,408.719L326.02,414.239L323.754,421.679L322.129,426.479C321.839,428.509 322.602,429.354 323.404,431.039C324.688,433.741 325.948,436.516 327.702,438.959L329.783,441.599C330.573,442.744 330.877,443.54 331.873,444.697L334.698,447.426L337.221,450.239L339.829,452.879L345.609,459.356L349.679,462.788L354.719,467.351C356.267,468.383 360.064,469.112 361.919,468.891C365.145,468.503 366.801,467.538 369.599,466.064L375.119,463.335L381.119,459.714L387.359,456.966L393.119,453.913L401.999,449.704L406.799,446.423L409.199,445.259L411.599,443.466C413.519,442.11 414.388,441.858 416.118,439.919C418.136,437.656 417.544,436.763 418.22,434.639L420.474,428.399L421.58,424.079L424.129,418.319L424.741,414.719L425.416,412.559L428.252,403.439L429.611,400.799L430.252,398.399L431.485,395.039L432.517,390.479C432.942,388.928 433.698,387.582 433.878,385.919C434.207,382.854 432.138,377.8 430.338,375.359L427.41,371.999L425.096,369.119L423.522,366.959L420.692,363.839L417.721,359.519L414.02,355.199L411.8,352.319L407.06,347.519C404.286,344.545 399.685,340.372 395.519,339.673C394.696,339.539 393.476,339.589 392.639,339.673ZM327.599,349.038C324.424,349.744 321.832,351.849 319.439,353.932C316.857,356.178 314.423,358.605 312.486,361.439L310.456,364.559L307.857,367.919L305.106,371.999C302.596,375.575 299.999,379.165 297.954,383.039L292.962,393.359L291.064,396.959L289.504,399.599L287.073,405.359L284.421,411.119L283.274,414.959L281.207,419.519L278.373,429.119L277.818,432.239L277.017,435.119C276.606,436.854 275.526,443.104 275.519,444.719L275.519,447.599L275.301,449.999L275.018,455.279L274.823,456.959L275.039,459.839L275.039,464.879C275.042,466.436 275.375,469.789 276.098,471.119C277.408,473.521 280.482,474.299 282.719,472.679C284.685,471.255 286.382,468.498 287.918,466.559L289.703,464.399L291.026,462.519L295.677,458.159L302.058,450.719L305.438,446.159L309.302,441.599L311.301,438.479C312.182,437.188 313.331,436.403 313.938,435.119L315.311,426.959C315.741,424.816 316.185,423.04 316.878,420.959L318.066,417.599L319.06,413.279L320.961,406.799L322.393,403.199L324.462,397.199L326.67,392.879L328.427,387.599L329.953,383.999L331.578,380.879L335.205,374.399L336.738,371.279L337.53,369.119C338.514,367.137 339.87,366.071 339.405,363.599C338.797,360.373 337.374,359.843 335.646,357.599C335.178,356.994 334.837,356.339 334.458,355.679L332.79,352.799L331.869,350.889C330.945,349.446 329.236,348.894 327.599,349.038ZM417.599,450.793C413.435,451.58 408.556,454.458 404.639,456.198L401.759,457.307L394.559,460.513L388.319,464.082L383.519,466.139L375.359,470.432L365.279,475.955C364.077,476.643 360.433,478.919 359.596,479.802C359.094,480.335 358.509,481.268 358.153,481.919C356.877,484.256 356.265,487.482 355.621,490.079L354.419,493.919L353.925,497.039L352.626,502.559L351.397,512.159L351.196,515.279C350.956,517.256 350.404,517.463 350.399,520.319L350.399,527.038L350.269,529.678C350.296,530.422 351.328,534.082 351.666,534.718C352.264,535.846 353.334,536.521 354.237,537.38L356.409,539.749L358.799,541.921L361.929,545.278L365.279,548.329L368.639,550.947L371.999,553.818L375.119,556.146C376.929,557.65 377.891,558.608 379.919,559.981L387.599,564.186L394.799,568.141C397.902,569.742 400.252,571.978 403.919,571.914L407.279,572.036C409.187,572.158 413.444,571.419 415.439,571.059L422.879,569.497L428.159,567.284L433.439,565.47L440.639,561.418L445.919,559.278C447.966,558.349 452.692,555.195 453.923,553.438C454.362,552.814 454.434,552.392 454.736,551.758L455.634,550.078C456.385,548.415 456.515,546.558 456.93,544.798L458.375,538.318L459.618,533.758C460.002,531.08 459.447,531.296 459.618,529.678C460.122,526.422 461.514,524.123 461.519,520.559C461.526,516.409 461.927,516.704 462.618,512.879L463.981,504.479L464.811,499.919L464.989,497.759C465.38,495.587 466.047,494.624 466.079,491.999L465.848,487.919C465.781,486.419 465.81,484.463 465.063,483.119C464.288,481.722 463.115,481.227 461.999,480.215L458.857,477.073L454.079,473.588L444.719,465.939C442.681,464.358 440.437,463.052 438.239,461.711L434.159,458.845L429.599,456.236L425.519,453.647C423.738,452.586 419.632,450.683 417.599,450.793ZM519.839,451.758C517.659,452.248 517.297,452.968 515.519,454L509.519,457.782L506.159,460.371L502.559,462.479L492.239,469.674C486.86,473.384 485.372,473.915 480.479,478.799L478.559,480.668C476.883,482.113 475.227,483.133 474.219,485.279C473.514,486.781 473.439,488.922 473.173,490.559L472.422,494.159L472.278,496.079L471.531,501.599L470.509,505.919L469.532,512.159L468.109,518.159L467.211,524.399L465.421,531.358L464.617,539.038L464.118,543.838C463.95,545.576 463.011,549.733 463.388,551.038C464.271,554.11 468.054,555.301 470.639,556.623C471.675,557.156 472.559,557.907 473.519,558.558C477.176,561.034 479.276,562.158 483.119,564.186L485.759,565.652L489.599,567.193L494.399,569.682L496.799,570.586L501.839,572.403L510.239,574.962C510.927,575.041 511.059,574.957 511.679,574.962L513.119,574.962C515.233,575.12 516.666,573.966 518.399,572.982L523.439,570.591C524.655,569.878 524.843,569.223 526.081,568.374L529.198,566.47L533.518,563.518L538.558,560.262L547.438,554.696L552.718,550.422L557.278,547.093L560.158,544.412L564.238,541.938C566.432,540.33 569.809,536.792 571.215,534.478C573.38,530.922 573.963,526.314 574.359,522.239L575.038,513.599L575.278,509.759L575.278,506.879L576.238,497.519L576.238,495.119L576.786,488.399L577.189,485.039C577.333,481.328 575.722,479.487 572.638,477.683L570.238,476.375L568.318,474.863L564.718,472.664L559.918,470.43L552.238,465.707L548.158,463.559L539.998,458.264C537.14,456.695 530.725,454.28 527.518,453.359C525.008,452.639 522.512,451.523 519.839,451.758ZM279.119,477.978C277.089,478.088 276.477,478.417 276.141,480.479C276.009,481.292 275.966,482.055 276.021,482.879L277.187,498.239C277.802,503.732 278.958,509.005 280.456,514.319L281.301,517.679L282.837,520.799L283.787,523.439L285.018,526.318L285.894,528.958L287.399,532.318L290.728,539.998L291.99,542.158C293.198,544.532 294.201,546.92 295.744,549.118L297.383,551.758L299.397,554.398L302.639,559.438C303.234,560.35 304.377,562.592 305.733,562.16C306.767,561.831 306.604,560.744 306.501,559.918L306.28,553.918C306.249,553.136 306.474,551.924 306.28,551.278C305.915,549.632 303.825,547.614 302.956,545.998L301.444,542.638L299.404,539.518L298.353,537.118L296.939,534.238L294.35,528.958L292.965,525.359L291.381,521.999L290.699,519.599L289.283,515.759L287.994,510.959C286.17,505.038 284.661,501.543 283.883,495.119L282.546,486.479L281.92,480.479C281.606,478.703 280.85,478.146 279.119,477.978ZM583.438,539.106C581.386,539.401 578.29,539.353 576.478,540.114C575.281,540.615 574.645,541.424 573.598,542.137L570.238,544.266L568.078,546.044L564.718,548.437L561.838,550.825L558.958,552.846L555.358,555.891L553.438,557.161L548.398,561.116L540.958,566.264L537.358,568.952L531.598,572.161L525.599,576.157C523.391,577.59 520.998,578.634 518.639,579.776C517.638,580.261 516.359,580.645 515.528,581.343C513.589,582.978 512.358,585.308 510.831,587.278L505.688,592.558L500.684,598.798L497.641,602.398L494.72,606.478L491.828,610.078C490.225,612.286 487.777,614.345 487.928,617.278C487.976,618.19 488.255,618.898 488.723,619.678C490.345,622.378 493.379,621.869 496.079,621.838C497.631,621.819 497.828,621.62 499.199,621.425C501.726,621.068 504.219,620.65 506.639,619.786L509.039,618.733L515.279,616.513L517.439,615.169L520.799,613.637L525.839,610.402L528.238,609.104L534.238,605.194L536.638,603.934L542.638,599.537C544.942,598.033 546.759,597.889 549.118,596.034C550.765,594.74 552.015,593.103 553.479,591.639L558.097,587.211L559.969,584.888L562.729,582.438L566.041,578.571L572,571.918C573.582,569.876 573.651,568.986 574.47,567.838L576.68,565.198L579.368,560.878L581.336,558.478L583.83,554.638L585.661,550.558L587.912,546.958C589.402,544.33 589.412,540.464 586.078,539.305C585.164,538.986 584.382,539.019 583.438,539.106ZM341.999,539.605C340.165,540.037 339.753,540.73 338.159,541.258L335.519,541.866L332.879,542.797L329.999,543.603L325.199,545.394L321.839,546.27C319.473,546.862 314.073,548.053 312.611,549.86C310.487,552.488 311.001,558.968 311.039,562.318C311.056,563.619 311.543,567.351 311.939,568.558L312.851,570.718L314.236,574.078C315.266,576.034 315.58,576.145 316.859,577.719L318.556,580.078L322.799,584.401L327.599,589.395L330.479,591.483L334.319,595.158L337.439,597.485L339.359,599.151L342.479,601.006L349.199,605.629L352.079,607.22L357.359,610.645L359.759,612.365L364.319,614.741L368.879,617.444C373.967,619.757 380.836,620.972 386.399,621.38L392.159,621.838C396.328,621.788 397.796,620.885 401.279,620.269L403.199,620.089C404.454,619.923 407.12,619.112 408.239,618.548C410.053,617.636 410.704,616.109 410.629,614.158C410.543,611.931 409.727,608.948 409.309,606.718L408.323,601.678L407.576,599.038L405.57,590.398C404.833,587.602 404.543,583.522 402.625,581.302C401.262,579.726 396.354,577.15 394.319,576.186C393.277,575.694 392.43,575.43 391.439,574.774L387.359,571.544L383.039,568.789L377.999,564.894L374.159,562.23L370.319,558.961L367.439,556.947L364.319,553.959L360.489,550.966L358.549,548.922L353.759,545.338L350.399,542.744C349.365,542.084 344.968,539.838 343.919,539.605C343.276,539.473 342.645,539.526 341.999,539.605ZM434.159,622.388L426.479,622.558C423.942,622.563 421.535,623.115 419.039,623.451L410.639,624.625C409.048,624.925 406.573,625.597 405.119,626.264C404.497,626.549 403.59,627.032 403.59,627.831C403.59,628.904 405.5,629.338 406.319,629.585L415.679,631.808C418.508,632.317 424.54,633.353 427.199,633.358L430.319,633.358L436.319,633.838L456.479,633.838L461.039,633.598C464.939,633.579 471.56,632.009 475.439,630.987C477.296,630.495 478.086,630.113 479.754,629.204C480.344,628.882 481.093,628.481 480.8,627.651C480.512,626.833 478.839,626.741 478.079,626.59L470.159,624.908L466.079,624.013L463.679,624.013L456.239,623.257L449.759,622.798L445.919,622.558L437.279,622.558L434.159,622.388ZM514.559,312.959C513.707,312.729 511.676,312.119 511.364,311.229C511.163,310.658 511.902,307.281 512.063,306.479L514.218,295.199L515.658,288.719C516.987,282.654 517.765,279.275 519.913,273.359L521.245,269.759C522.536,266.838 524.034,263.853 525.683,261.119L527.238,259.158C527.706,258.302 527.401,257.054 527.612,256.079L529.107,251.999C529.933,249.914 531.188,248.711 532.422,246.959L534.378,244.079C535.863,242.061 540.356,236.807 542.158,235.25C543.658,233.951 545.278,232.991 546.958,231.969C551.24,229.363 553.102,228.328 557.998,227.003C561.903,225.947 564.454,225.11 568.558,226C571.914,226.727 579.646,230.467 582.958,232.139C584.115,232.723 587.031,234.638 587.998,234.873C589.222,235.173 589.878,234.244 592.558,234.239C600.728,234.225 611.132,233.903 618.718,237.119C620.285,233.92 623.631,231.297 626.878,229.922L631.198,228.371C634.625,226.982 634.239,227.027 637.918,226.156C639.586,225.763 639.344,225.559 641.278,225.602C642.418,225.628 642.867,225.811 643.918,225.974C646.04,226.307 647.081,225.971 648.958,227.57C651.761,229.958 655.645,235.936 656.657,239.519C657.097,241.077 657.224,243.158 657.375,244.799C657.879,250.226 657.704,252.225 656.749,257.519L656.398,259.679C657.833,260.574 659.134,262.576 660.041,263.999C661.335,266.03 663.773,270.575 664.263,272.879C664.376,273.782 664.318,275.714 664.263,276.719C665.269,276.897 665.638,277.06 666.478,277.542C668.734,278.834 669.766,281.147 670.037,283.679C670.186,285.078 670.258,288.242 670.901,289.439C671.609,290.759 674.16,293.164 675.288,294.306C677.211,296.255 679.049,299.176 679.438,301.919C680.225,301.547 682.292,300.549 683.038,300.376L684.718,300.376C686.22,300.179 687.752,299.694 689.278,299.802L693.598,299.999L698.638,300.438L702.718,300.789L705.358,301.331L713.518,303.179L715.438,303.518C718.253,304.11 721.008,304.907 723.598,306.182C724.064,306.41 725.093,306.902 725.468,307.19C727.306,308.613 726.048,310.982 724.328,310.619C723.8,310.509 723.132,309.981 722.616,309.714C721.8,309.299 719.645,308.351 718.798,308.106L713.038,306.818C705.533,304.936 703.083,304.355 695.278,303.818L692.878,303.654C690.951,303.578 688.212,303.388 686.398,303.654L683.278,304.605L681.598,304.917C680.513,305.231 680.283,305.519 678.958,305.759C678.958,306.359 678.874,307.571 679.203,308.056C679.56,308.584 680.532,308.769 681.118,308.985L684.958,310.65C687.502,311.435 692.213,311.718 695.038,312.066L702.478,313.278L706.558,314.368L713.513,315.954C714.428,316.348 715.265,317.137 715.018,318.229C714.833,319.036 714.094,319.566 713.278,319.54L706.558,318.088C701.943,316.936 699.075,316.288 694.318,315.666C690.432,315.16 685.392,315.002 681.838,313.449L679.678,312.239C680.355,316.021 679.901,316.617 678.478,319.919C680.252,319.115 681.18,319.883 682.798,320.699C684.692,321.652 690.528,325.751 692.158,327.189C693.056,327.978 695.158,330.109 694.858,331.429C694.592,332.596 693.056,333.328 691.767,332.243C691.09,331.672 690.876,330.769 688.318,328.866L683.758,325.612L681.358,324.006C679.292,322.871 679.131,323.418 677.518,321.359C677.271,321.93 676.769,322.734 676.928,323.346C677.201,324.393 680.393,328.029 681.257,329.039C682.512,330.505 683.844,331.933 684.843,333.599L687.284,338.159L688.872,341.759L692.794,348.239C693.557,349.542 695.148,353.039 695.35,354.479C695.518,355.665 694.575,356.728 693.36,356.459C691.896,356.133 691.652,354.462 691.232,353.279C690.624,351.58 690.094,350.913 689.165,349.439L685.02,341.999C683.88,339.645 682.877,337.213 681.384,335.039C679.69,332.567 675.183,328.381 674.398,325.919C673.536,326.778 672.984,327.357 671.998,328.103C670.532,329.214 665.837,331.761 664.078,332.233C663.217,332.385 663.089,332.217 662.398,332.233L660.958,332.589C659.621,332.773 659.223,332.43 657.358,332.985C654.428,333.856 653.453,335.298 650.878,335.896L641.998,338.022C640.889,338.339 639.075,338.807 638.302,339.652C635.905,342.273 635.96,344.97 635.737,348.239L635.518,352.559C635.497,354.321 635.125,358.564 634.717,360.239L633.778,362.879L632.852,366.719L631.438,379.199L631.438,382.319L631.198,386.399C631.203,389.598 632.881,392.336 633.949,395.279C634.918,397.95 634.767,399.061 634.798,401.759L636.346,415.679L638.29,423.359L639.279,431.519L641.451,439.919C641.869,441.937 641.881,443.884 642.02,445.919L642.238,448.319L642.238,452.639L641.78,457.679L641.175,464.159L640.225,468.959L638.35,477.839L635.621,484.319L634.213,488.159C632.941,491.648 632.619,491.994 631.837,495.839L630.917,504.719L629.278,517.679L629.029,522.239L629.029,524.399C628.789,526.592 628.28,528.085 627.812,530.158L626.638,538.318L626.168,544.318L626.168,546.478L625.577,550.318L624.339,555.838L622.93,564.478C622.141,568.424 620.897,572.425 620.878,576.478L620.878,580.318L620.439,585.118L619.678,594.718C619.738,599.765 622.431,605.12 624.531,609.598L626.353,614.158L630.087,622.318C630.284,623.017 630.221,623.761 630.305,624.478C630.394,625.217 630.512,625.621 630.435,626.398C629.924,631.678 623.434,633.591 618.958,633.598L615.598,633.598L613.198,633.368L610.798,633.368L608.158,633.137L605.038,633.358L601.438,633.358L593.998,632.878C593.18,632.869 592.138,632.931 591.358,632.751C590.137,632.47 588.841,631.594 587.758,630.961C583.614,628.539 584.564,629.252 581.278,625.678L581.278,626.398C579.778,625.186 579.766,623.393 579.356,621.598C578.581,618.197 577.758,617.993 577.647,614.158L577.647,609.118L576.958,599.518L576.958,592.078L576.718,588.478C576.69,586.04 576.862,585.222 576.32,582.718L574.808,576.478C574.611,572.588 576.721,570.946 578.907,568.078L582.478,563.278L579.836,570.478C579.219,571.981 578.329,574.134 578.42,575.758C578.533,577.76 579.332,580.021 579.73,581.998C580.189,584.269 580.069,585.046 580.078,587.278L580.318,590.638L580.15,596.398L581.038,608.638L581.038,612.478C581.026,613.575 580.846,614.513 581.163,615.598C581.475,616.664 582.037,617.177 582.31,617.998C582.596,618.853 582.469,620.996 583.659,622.798C585.464,625.534 587.178,626.588 589.918,628.145C590.605,628.537 591.582,629.153 592.318,629.365C593.593,629.732 597.116,629.756 598.558,629.758L602.638,629.989L605.518,629.989L608.398,629.761L610.558,629.989L613.198,629.989L615.838,630.229C618.829,630.361 623.343,630.169 625.657,628.028C626.367,627.368 626.677,626.751 627.118,625.918C626.849,625.717 626.696,625.688 626.535,625.34L625.781,621.358C625.189,619.412 624.113,617.662 623.252,615.838L621.629,611.758L619.753,607.918L617.012,600.238C616.282,597.325 616.285,595.268 616.318,592.318L617.518,579.598L617.518,575.518C617.566,571.525 618.797,567.646 619.532,563.758L620.941,555.118L622.693,546.718L622.82,544.078L623.278,537.598L624.579,528.718L625.669,523.679L625.669,521.519L625.918,516.719L627.557,504.239C627.951,500.137 627.869,496.009 628.952,491.999L632.125,483.359L634.618,477.599L636.781,467.519L638.158,458.879L638.158,456.719L638.638,452.399C638.674,449.315 638.461,443.31 637.832,440.399L635.679,432.239L634.69,424.079L632.638,415.679L631.198,402.239C631.179,400.475 631.292,398.927 630.742,397.199L629.057,392.639C628.076,390.184 627.603,389.934 627.608,387.119L627.608,384.479L627.838,382.079L627.838,378.719C627.855,375.145 629.072,366.683 629.921,363.119C630.341,361.353 630.946,360.853 631.335,358.559C631.774,355.955 631.887,352.581 631.918,349.919L632.137,347.519C632.314,344.949 632.285,343.247 633.358,340.799L628.798,343.113C627.927,343.732 626.96,344.953 625.918,345.179C624.761,345.426 623.691,344.356 623.938,343.199C624.195,342.013 625.88,340.569 626.878,339.952C627.8,339.381 632.329,337.177 633.358,336.844L635.998,336.215L641.278,334.425L645.598,333.333L650.638,332.19C651.651,331.821 653.806,330.22 656.158,329.555C658.585,328.871 658.27,329.231 660.238,328.996L662.158,328.602L663.838,328.427C664.479,328.261 668.35,326.133 669.017,325.674C670.244,324.829 673.042,322.086 673.834,320.855L675.058,318.479C675.843,316.912 676.38,316.223 676.308,314.399C676.26,313.182 675.833,311.678 675.358,310.559C675.048,311.618 674.134,313.295 673.347,314.066C671.96,315.431 668.432,316.775 666.478,316.799C662.528,316.845 662.621,316.336 659.278,314.846C657.922,314.241 656.156,313.499 654.958,312.647C652.438,310.854 652.165,310.379 650.818,307.679C650.415,306.87 649.865,305.975 650.021,305.039C650.101,304.574 650.377,304.022 650.665,303.65C652.054,301.854 652.853,303.534 654.718,302.327C658.141,300.112 658.071,300.338 661.678,298.929C663.301,298.293 665.42,297.522 667.198,297.626C668.237,297.683 669.12,298.149 670.078,298.504C672.468,299.39 673.445,299.553 675.598,301.199C674.955,299.716 673.829,298.082 672.677,296.949L670.887,295.336L667.592,291.498C666.512,290.082 667.39,288.762 666.545,287.049C666.166,286.278 665.725,286.007 665.269,285.338L663.44,282.239C662.545,280.653 662.693,280.074 662.324,279.369C661.793,278.356 660.925,278.226 660.682,277.19L660.682,274.559C660.61,272.118 657.92,267.21 656.487,265.199C655.361,263.62 653.835,262.547 654.238,260.399C652.565,259.288 653.012,257.769 653.36,256.079C653.667,254.577 653.996,252.081 653.998,250.559C654.003,247.828 653.782,242.234 652.906,239.759C652.297,238.034 650.847,235.756 649.798,234.239C648.898,232.939 646.87,230.251 645.358,229.816L643.438,229.61C642.591,229.499 641.638,229.199 640.798,229.231C640.059,229.257 639.351,229.526 638.638,229.706C634.889,230.639 635.17,230.671 631.678,232.031C629.211,232.991 628.292,232.955 625.918,234.621C624.685,235.487 623.873,236.183 622.909,237.359C621.809,238.701 620.417,241.185 618.238,240.782L615.118,239.606C608.847,238.197 604.232,237.839 597.838,237.839L592.798,237.839C590.778,237.868 587.888,239.419 586.088,238.871C585.044,238.555 584.948,237.823 584.305,237.237L581.998,235.807C579.565,234.304 575.557,232.567 572.878,231.393C570.639,230.411 567.19,229.031 564.718,229.24C563.247,229.365 560.893,229.984 559.438,230.399C557.494,230.956 555.543,231.489 553.678,232.288C551.106,233.395 546.67,236.289 544.558,238.13C542.413,239.999 539.802,243.278 537.978,245.519L535.062,249.599C533.082,252.41 533.269,251.457 531.932,254.879L531.27,256.559L530.878,261.119C530.847,263.92 531.214,264.004 531.529,266.399C531.661,267.4 531.534,267.647 531.814,268.799C532.126,270.083 534.246,275.402 534.913,276.479C537.102,280.022 538.616,280.389 539.518,281.999C540.063,281.846 540.375,281.747 540.958,281.788C541.278,281.81 541.599,281.87 541.894,282.002C543.003,282.498 543.373,283.826 542.482,284.723C541.498,285.714 539.535,285.53 538.798,284.435C538.314,284.51 538.119,284.603 537.598,284.435C536.485,284.193 534.073,281.75 533.382,280.778C531.198,277.715 530.226,275.164 528.992,271.679L528.162,269.279L527.758,265.439C526.69,266.438 526.184,267.748 525.539,269.039C524.305,271.516 522.683,275.956 521.898,278.639C519.572,286.593 518.051,294.736 516.572,302.879L515.867,305.999L514.559,312.959ZM563.518,231.751C566.578,231.139 569.374,232.029 571.918,233.733C572.804,234.326 574.141,235.303 574.378,236.399C574.633,237.575 573.572,238.627 572.398,238.379C571.491,238.187 570.296,237.064 569.518,236.524C568.374,235.725 566.847,235.168 565.438,235.214C564.5,235.243 563.89,235.531 563.038,235.871C558.591,237.65 557.965,239.313 554.398,241.622L547.198,244.795C545.545,245.656 543.946,246.988 542.742,248.399C540.294,251.26 539.941,252.369 539.002,255.839C538.753,256.758 538.39,257.771 538.342,258.719L538.772,263.279C538.666,264.489 537.788,265.811 536.408,265.499C534.738,265.12 535.167,263.32 535.021,262.079C534.459,257.363 534.584,258.755 535.647,254.399C535.974,253.058 535.906,252.64 536.504,251.279C538.201,247.415 541.549,243.619 545.278,241.631L551.518,239.035L557.038,234.871C558.006,234.184 562.302,232.199 563.518,231.751ZM624.488,238.475C625.664,238.257 627.341,238.679 628.162,239.613C629.137,240.722 628.556,242.164 627.349,242.462C626.581,242.651 624.226,241.843 623.674,241.283C622.599,240.194 623.314,239.018 624.488,238.475ZM630.248,240.419C633.279,240.263 632.506,244.173 630.248,243.659C628.861,243.343 628.16,241.295 630.248,240.419ZM635.528,243.299C637.088,243.215 639.529,244.701 640.793,245.603C641.449,246.069 642.116,246.609 642.298,247.439C642.555,248.62 641.494,249.659 640.318,249.419C639.483,249.249 638.252,248.214 637.438,247.763C636.541,247.264 635.365,246.993 634.714,246.189C633.752,244.996 634.208,243.854 635.528,243.299ZM646.568,251.219C648.154,251.14 649.09,252.393 649.076,253.919C649.066,255.006 648.152,255.904 647.041,255.659C645.526,255.323 644.101,252.254 646.568,251.219ZM570.961,256.739C574.419,256.564 572.775,261.22 570.488,260.699C568.64,260.277 568.734,257.627 570.961,256.739ZM609.128,261.539C612.159,261.383 611.386,265.293 609.128,264.779C607.741,264.462 607.04,262.415 609.128,261.539ZM566.638,263.219C570.411,263.03 568.05,268.194 565.688,267.659C563.614,267.186 564.116,264.184 566.638,263.219ZM614.168,263.219C617.199,263.063 616.426,266.973 614.168,266.459C612.781,266.142 612.08,264.095 614.168,263.219ZM618.728,266.097C619.798,266.01 621.142,266.406 621.418,267.609C621.716,268.917 620.403,269.865 619.198,269.656C617.425,269.344 616.491,267.047 618.728,266.097ZM563.038,268.23C566.031,268.211 565.45,271.655 562.798,272.008C561.62,272.164 560.552,271.209 560.818,270.002C561.066,268.893 562.059,268.485 563.038,268.23ZM611.518,274.022C612.644,273.827 612.641,273.986 613.678,274.022C614.487,274.115 615.013,274.031 615.838,274.269C618.584,275.061 621.826,278.606 623.998,280.49C625.193,281.526 627.716,282.791 627.481,284.637C627.308,285.976 625.721,287.061 624.785,287.879C622.025,290.296 618.761,292.245 615.118,292.926C612.641,293.39 611.113,292.727 608.878,291.839C604.537,290.114 605.432,290.625 601.438,287.877C600.322,287.109 598.801,285.525 598.527,284.159C598.378,283.624 598.515,283.238 598.527,282.719C598.515,282.05 598.333,281.742 598.527,281.039C599.151,279.275 600.891,278.562 602.398,277.797L604.558,276.542C606.788,275.382 609.109,274.634 611.518,274.022ZM554.158,275.459C557.005,275.32 556.642,278.706 554.158,279.182C552.966,279.412 551.919,278.361 552.178,277.209C552.399,276.234 553.306,275.766 554.158,275.459ZM609.118,280.319C610.906,280.79 612.221,281.313 613.918,281.994C614.446,282.208 615.385,282.621 615.91,282.237C617.343,281.188 614.883,279.774 614.158,279.34C611.633,277.826 610.899,277.78 609.118,280.319ZM546.478,278.795C549.339,278.368 549.987,281.558 547.198,282.254C545.595,282.652 544.453,281.579 544.738,280.329C544.947,279.422 545.701,279.09 546.478,278.795ZM636.728,284.819C639.759,284.663 638.986,288.573 636.728,288.059C635.341,287.742 634.64,285.695 636.728,284.819ZM639.848,288.419C641.024,288.359 643.261,289.41 643.916,290.423C644.588,291.462 644.194,292.814 642.949,293.099C641.194,293.5 636.073,290.001 639.848,288.419ZM644.168,293.459C645.459,293.39 646.601,294.1 646.861,295.439C647.089,296.615 646.069,297.671 644.888,297.419C643.335,297.088 641.612,294.53 644.168,293.459ZM610.798,299.596C611.756,299.502 615.673,299.428 616.558,299.596C617.367,299.699 618.101,300.112 618.298,300.969C618.913,303.666 614.437,303.102 612.958,303.119L601.678,304.559L599.518,304.559L593.278,305.039L589.198,305.274L584.638,305.274C581.643,305.315 582.202,305.81 578.398,305.274C577.28,305.104 576.114,304.468 576.418,303.129C576.932,300.88 580.23,301.984 581.758,301.898L583.678,301.684L587.998,301.684L591.838,301.439L598.798,300.959L601.198,300.959L610.798,299.596ZM637.918,301.785C639.149,301.626 640.981,301.566 641.338,303.129C641.581,304.197 640.793,304.938 639.833,305.188L633.118,306.146C632.158,306.318 629.912,306.825 629.048,306.561C627.771,306.167 627.286,304.718 628.234,303.755C628.774,303.208 629.749,303.028 630.478,302.898L633.358,302.43L637.918,301.785ZM609.358,305.142C610.553,304.998 612.197,304.996 612.538,306.489C612.754,307.434 612.125,308.188 611.269,308.483L605.038,309.47L594.238,312.549L587.038,314.481L580.318,315.534L575.518,316.35L572.158,317.152C571.078,317.157 570.169,316.223 570.418,315.129C570.644,314.145 571.777,313.638 572.638,313.331C574.489,312.666 577.796,312.23 579.838,311.901L586.558,310.826L596.158,308.188L600.238,306.873L609.358,305.142ZM637.198,309.023C638.545,308.774 641.173,308.558 641.578,310.329C641.792,311.265 641.165,312.038 640.309,312.323L637.918,312.602L633.118,313.586C632.36,313.722 631.484,313.991 630.728,313.761C629.35,313.338 628.933,311.73 630.092,310.797C630.862,310.178 632.386,310.019 633.358,309.858C635.072,309.575 635.499,309.52 637.198,309.023ZM623.998,311.862C624.469,311.822 624.699,311.75 625.198,311.862C626.249,311.949 627.2,312.762 626.938,313.91C626.669,315.088 625.628,315.155 624.718,315.551L622.798,316.612L618.958,318.369L616.558,319.084L610.798,321.153L608.398,321.858L604.798,323.267L598.558,325.302L593.518,327.405L587.518,329.469L584.398,330.445L577.678,332.891C576.366,333.22 575.17,332.269 575.458,330.961C575.751,329.641 577.297,329.2 578.398,328.787L583.918,326.764L587.278,325.729L591.838,324.191L598.078,321.618L603.118,320.034L606.718,318.642L610.318,317.5L613.438,316.285L617.998,314.85L623.998,311.862ZM631.678,315.246C632.609,315.278 633.421,315.532 633.658,316.569C633.881,317.548 633.209,318.244 632.389,318.633C631.009,319.283 629.146,319.271 625.678,321.34L621.358,324.27L614.878,327.424L610.558,329.937L605.998,331.993L598.318,335.519C596.794,336.196 594.44,337.821 593.038,338.814C592.285,339.347 590.54,340.552 589.678,340.696C588.474,340.897 587.158,339.964 587.458,338.649C587.706,337.571 589.074,337.113 589.918,336.534C593.007,334.41 593.866,333.671 597.358,331.981L606.718,327.777L610.078,326.049L612.238,324.695L618.718,321.649L623.038,318.621C624.896,317.399 629.441,315.527 631.678,315.246ZM540.718,605.758L542.062,610.318L545.898,618.478C546.586,620.125 547.861,623.369 548.828,624.718C550.093,626.487 551.943,627.713 553.429,629.278C554.257,630.152 554.302,630.353 554.965,631.198C556.153,632.713 556.746,633.241 556.796,635.278C556.875,638.571 555.817,639.603 553.198,641.295L549.838,643.256C546.699,644.823 545.653,644.852 542.398,645.687C540.694,646.124 539.382,646.625 537.598,646.549L535.198,646.15L531.838,645.764C527.955,645.039 527.535,644.588 523.199,644.638C520.491,644.672 514.592,646.047 511.919,646.88C510.409,647.35 506.142,648.586 504.719,648.346C502.105,647.9 501.435,645.987 500.3,643.918C498.003,639.737 497.883,637.618 497.173,633.118L496.319,628.798L499.679,627.838L500.533,632.158C500.838,634.076 500.967,636.044 501.543,637.918L502.607,640.558C502.971,641.453 504.255,644.192 505.038,644.624C505.638,644.957 507.171,644.585 507.839,644.422L514.799,642.401L517.679,641.979L521.519,641.319C523.309,641.146 527.396,641.331 529.198,641.59L532.798,642.411L535.918,642.759C536.794,642.855 537.423,643.16 538.318,643.066L542.878,641.938L544.798,641.537C546.243,641.151 549.051,639.805 550.318,638.989C551.59,638.17 553.642,637.069 553.335,635.278C553.182,634.388 552.421,633.553 551.857,632.878C550.014,630.68 549.109,630.277 547.448,628.558C544.774,625.789 543.5,621.716 541.952,618.238L539.941,614.158C539.43,613.131 537.759,609.406 537.937,608.408C538.114,607.405 539.912,606.382 540.718,605.758ZM581.278,625.438L581.038,625.438L581.278,625.678L581.278,625.438ZM223.679,259.919L223.329,257.759C222.374,252.465 222.199,250.466 222.703,245.039C222.854,243.398 222.981,241.317 223.42,239.759C224.433,236.176 228.316,230.198 231.119,227.81C232.996,226.211 234.038,226.547 236.159,226.214C237.633,225.983 237.902,225.799 239.519,225.844C240.851,225.88 240.983,226.12 242.159,226.396C245.838,227.267 245.452,227.222 248.879,228.611L253.199,230.162C256.446,231.537 259.792,234.16 261.359,237.359C268.946,234.143 279.35,234.465 287.519,234.479C290.2,234.484 290.855,235.413 292.079,235.113C293.046,234.878 295.962,232.963 297.119,232.379C300.431,230.707 308.164,226.967 311.519,226.24C315.623,225.35 318.174,226.187 322.079,227.243C326.975,228.568 328.837,229.603 333.119,232.209C334.799,233.231 336.419,234.191 337.919,235.49C339.721,237.047 344.214,242.301 345.7,244.319L347.656,247.199C348.889,248.951 350.145,250.154 350.97,252.239L352.465,256.319C352.677,257.294 352.372,258.542 352.84,259.398L354.395,261.359C356.044,264.093 357.541,267.078 358.833,269.999L360.165,273.599C362.313,279.515 363.09,282.894 364.42,288.959L365.86,295.439L368.015,306.719C368.176,307.521 368.915,310.898 368.713,311.469C368.401,312.359 366.371,312.969 365.519,313.199L364.211,306.239L363.505,303.119C362.027,294.976 360.505,286.833 358.18,278.879C357.395,276.196 355.773,271.756 354.539,269.279C353.893,267.988 353.387,266.678 352.319,265.679L351.916,269.519L351.085,271.919C349.852,275.404 348.88,277.955 346.696,281.018C346.005,281.99 343.593,284.433 342.479,284.675C341.958,284.843 341.764,284.75 341.279,284.675C340.542,285.77 338.579,285.954 337.595,284.963C336.705,284.066 337.074,282.738 338.183,282.242C338.478,282.11 338.8,282.05 339.119,282.028C339.702,281.987 340.014,282.086 340.559,282.239C341.461,280.629 342.976,280.262 345.165,276.719C345.832,275.642 347.951,270.323 348.263,269.039C348.544,267.887 348.417,267.64 348.549,266.639C348.863,264.244 349.23,264.16 349.199,261.359L348.865,257.039L347.394,253.199L343.725,247.919C340.926,243.856 336.649,238.965 332.639,236.109L329.759,234.383L326.639,232.634C324.894,231.842 322.962,231.29 321.119,230.779C319.525,230.335 316.456,229.459 314.879,229.459C312.263,229.459 309.318,230.731 306.959,231.736C304.545,232.766 300.237,234.715 298.079,236.047L295.773,237.477C295.175,238.019 295.062,238.67 294.215,239.032C292.49,239.769 289.29,238.106 287.279,238.079L278.399,238.079L272.879,238.519L270.959,238.67L264.479,239.975C263.478,240.287 262.101,241.204 261.119,241.022C258.35,240.506 257.884,237.662 254.879,235.379C252.129,233.291 251.332,233.414 248.399,232.271C244.907,230.911 245.188,230.879 241.439,229.946C240.727,229.766 240.019,229.497 239.279,229.471C238.439,229.439 237.487,229.739 236.639,229.85L234.719,230.056C233.282,230.469 231.307,233.003 230.443,234.239C229.348,235.802 227.803,238.216 227.171,239.999C226.612,241.574 226.082,246.873 226.079,248.639C226.075,251.464 226.144,253.516 226.718,256.319C227.066,258.009 227.512,259.528 225.839,260.639C226.243,262.787 224.716,263.86 223.591,265.439C222.158,267.45 219.467,272.358 219.395,274.799L219.395,277.43C219.153,278.466 218.284,278.596 217.754,279.609C217.384,280.314 217.533,280.893 216.638,282.479L214.809,285.578C214.353,286.247 213.911,286.518 213.532,287.289C212.683,289.012 213.563,290.322 212.486,291.738L209.191,295.576L207.4,297.189C206.248,298.322 205.123,299.956 204.479,301.439C206.632,299.793 207.609,299.63 209.999,298.744C210.957,298.389 211.84,297.923 212.879,297.866C214.658,297.762 216.777,298.533 218.399,299.169C221.519,300.388 222.153,300.364 225.119,302.397C227.366,303.938 228.335,301.881 229.699,304.329C229.996,304.864 230.155,305.385 230.056,305.999C229.96,306.604 229.427,307.586 229.139,308.159C227.371,311.697 225.779,312.779 222.239,314.452L217.439,316.65C214.293,317.62 211.118,316.941 208.319,315.359C207.806,315.069 207.146,314.714 206.731,314.306C206.102,313.689 204.969,311.646 204.479,310.799L203.769,314.639C203.692,316.581 204.419,317.519 205.259,319.199C206.606,321.892 208.723,324.39 211.267,326.056L213.599,327.325C214.312,327.724 215.251,328.35 215.999,328.595L223.919,329.795C226.298,330.467 228.599,332.185 229.679,332.507L234.479,333.573L239.039,334.737L244.319,336.532L246.959,337.165C249.021,337.89 253.665,340.216 255.095,341.761C257.442,344.303 255.369,345.678 254.159,345.419C253.118,345.193 252.15,343.972 251.279,343.353L246.719,341.039C247.792,343.487 247.763,345.189 247.941,347.759L248.159,350.159C248.19,352.821 248.303,356.195 248.742,358.799C249.131,361.093 249.736,361.593 250.156,363.359C251.003,366.918 252.196,375.136 252.239,378.719L252.239,382.079L252.479,387.359C252.474,390.174 252.002,390.424 251.02,392.879L249.335,397.439C248.786,399.167 248.898,400.715 248.879,402.479L247.439,415.919L245.387,424.319L244.399,432.479L242.246,440.639C241.617,443.55 241.403,449.555 241.439,452.639L241.919,456.959L241.919,459.119L243.297,467.759L245.539,478.079L247.953,483.599L251.361,493.199L252.52,504.479L254.159,516.959L254.409,521.759L254.409,523.919L255.498,528.958L256.799,537.838L257.258,544.318L257.385,546.958L259.137,555.358L260.546,563.998C261.314,568.069 262.552,572.053 262.559,576.238L262.559,580.318L263.759,593.038C263.764,595.878 263.793,597.401 263.123,600.238L260.325,608.158L258.554,611.758L257.68,614.158L255.928,617.758C255.045,619.525 254.306,621.353 253.859,623.278C253.473,624.934 254.056,625.335 252.959,626.158C253.401,626.991 253.71,627.608 254.421,628.268C255.731,629.482 257.723,629.974 259.439,630.248C262.468,630.759 265.295,630.243 268.319,630.248L272.399,630.001L275.759,630.238L281.519,629.998C282.962,629.996 286.485,629.972 287.759,629.605C288.522,629.386 289.895,628.539 290.639,628.114C293.291,626.6 293.435,626.636 295.47,624.238C296.008,623.602 296.469,623.084 296.829,622.318C297.575,620.732 297.525,618.963 297.767,618.238C298.041,617.417 298.602,616.904 298.914,615.838C299.231,614.753 299.051,613.815 299.039,612.718L299.039,608.878L299.927,596.638L299.759,591.118L299.999,587.758C300.028,585.32 299.855,584.502 300.398,581.998C300.796,580.158 301.78,577.076 301.655,575.278C301.54,573.586 299.409,568.614 298.718,566.638C298.384,565.69 297.698,564.51 297.839,563.518C298.931,565.417 300.926,567.997 302.298,569.758C303.018,570.685 304.401,572.334 304.802,573.358C305.126,574.184 305.315,575.821 305.27,576.718L303.813,582.718C303.246,585.171 303.371,586.059 303.359,588.478L303.119,592.078L303.119,599.518L302.43,609.358L302.43,614.398C302.32,618.233 301.497,618.437 300.722,621.838C300.311,623.633 300.299,625.426 298.799,626.638L298.799,625.918C295.514,629.492 296.464,628.779 292.319,631.201C291.237,631.834 289.941,632.71 288.719,632.991C287.939,633.171 286.898,633.109 286.079,633.118L283.679,633.358L281.039,633.358L278.159,633.598L274.559,633.598L271.919,633.377L269.039,633.598L264.479,633.838L260.639,633.838C256.473,633.788 250.804,631.899 249.762,627.358C249.561,626.482 249.75,623.408 249.99,622.558L253.725,614.398L255.434,610.078L257.205,606.478L258.645,602.638C260.082,598.601 260.45,597.121 260.399,592.798L259.72,586.798L259.199,580.798L259.199,576.478C259.151,572.516 257.92,568.578 257.147,564.718L255.738,556.078L254.5,550.558L253.91,546.718L253.91,544.558L253.439,538.558L252.266,530.398C251.798,528.325 251.289,526.832 251.049,524.639L251.049,522.479L250.799,517.919L249.16,504.959L248.241,496.079C247.458,492.234 247.137,491.888 245.865,488.399L244.456,484.559L241.727,478.079L239.853,469.199L238.903,464.399L238.298,457.919L237.839,453.119L237.839,448.559L238.058,446.159C238.197,444.124 238.209,442.177 238.627,440.159L240.799,431.759L241.787,423.599L243.731,415.919L245.279,401.999C245.311,399.301 245.159,398.19 246.129,395.519L247.521,391.919C248.433,389.778 248.867,389.346 248.879,386.879L248.639,382.799L248.639,379.439L247.226,366.959L246.299,363.119L245.361,360.479C244.953,358.804 244.581,354.561 244.559,352.799L244.341,348.479C244.118,345.21 244.173,342.513 241.775,339.892C241.003,339.047 239.188,338.579 238.079,338.262L229.199,336.136C226.624,335.538 225.65,334.096 222.719,333.225C220.855,332.67 220.456,333.013 219.119,332.829L217.679,332.473C216.988,332.457 216.861,332.625 215.999,332.473C214.24,332.001 209.546,329.454 208.079,328.343C207.093,327.597 206.541,327.018 205.679,326.159C205.192,327.688 204.083,328.77 203.087,329.999C200.671,332.977 199.327,333.882 197.457,337.439L196.204,339.599L193.007,346.079L188.935,353.279C188.474,354.505 188.243,356.361 186.717,356.699C185.627,356.939 184.663,356.049 184.699,354.959C184.737,353.913 186.033,350.937 186.539,349.919L191.205,341.999L193.262,337.439C194.966,334.168 196.199,332.325 198.619,329.519L202.01,325.439C202.351,325.002 203.135,323.965 203.179,323.418C203.229,322.775 202.667,322.089 202.319,321.599C201.422,323.459 200.373,323.339 198.719,324.246L196.079,326.017L191.759,329.106C189.201,331.009 188.987,331.912 188.311,332.483C187.022,333.568 185.486,332.836 185.219,331.669C184.919,330.349 187.022,328.218 187.919,327.429C189.549,325.991 195.386,321.892 197.279,320.939C198.897,320.123 199.826,319.355 201.599,320.159C200.176,316.857 199.723,316.261 200.399,312.479L198.239,313.689C194.685,315.242 189.645,315.4 185.759,315.906C181.003,316.528 178.135,317.176 173.52,318.328L166.8,319.78C165.984,319.806 165.244,319.276 165.06,318.469C164.812,317.377 165.65,316.588 166.564,316.194L173.52,314.608L177.599,313.518L185.039,312.306C187.864,311.958 192.575,311.675 195.119,310.89L198.959,309.225C199.545,309.009 200.517,308.824 200.875,308.296C201.203,307.811 201.119,306.599 201.119,305.999C199.795,305.759 199.564,305.471 198.479,305.157L196.799,304.845L193.679,303.894C191.865,303.628 189.127,303.818 187.199,303.894L184.799,304.058C176.995,304.595 174.544,305.176 167.04,307.058L161.28,308.346C160.432,308.591 158.277,309.539 157.461,309.954C156.945,310.221 156.278,310.749 155.75,310.859C154.029,311.222 152.772,308.853 154.61,307.43C154.984,307.142 156.014,306.65 156.48,306.422C159.069,305.147 161.824,304.35 164.64,303.758L166.56,303.419L174.72,301.571L177.359,301.029L181.439,300.678L186.479,300.239L191.519,300.042L197.279,300.705L200.639,302.159C201.028,299.416 202.867,296.495 204.789,294.546C205.917,293.404 208.468,290.999 209.176,289.679C209.819,288.482 209.891,285.318 210.04,283.919C210.311,281.387 211.343,279.074 213.599,277.782C214.439,277.3 214.809,277.137 215.815,276.959C215.759,275.954 215.702,274.022 215.815,273.119C216.304,270.815 218.743,266.27 220.036,264.239C220.943,262.816 222.244,260.814 223.679,259.919ZM312.719,231.943C313.602,231.827 315.47,231.748 316.319,231.943C317.219,232.127 322.223,234.532 323.039,235.111L327.839,238.826C330.489,240.597 332.79,240.799 334.799,241.871C338.557,243.875 341.461,247.257 343.35,251.039C344.135,252.609 344.049,253.079 344.43,254.639C345.493,258.995 345.618,257.603 345.057,262.319C344.903,263.618 345.217,266.238 342.961,265.739C340.201,265.127 341.742,261.021 341.74,259.199C341.74,258.09 341.293,256.914 341.01,255.839L340.401,253.439C339.707,251.565 337.667,248.836 336.237,247.449C332.764,244.089 329.68,244.252 326.159,242.155C322.434,239.937 321.781,238.007 317.039,236.111C316.307,235.819 315.676,235.531 314.879,235.466C313.264,235.331 311.598,235.999 310.319,236.939C309.45,237.578 308.138,238.883 306.969,238.619C306.086,238.418 305.507,237.527 305.699,236.639C306.165,234.487 310.722,232.42 312.719,231.943ZM254.159,238.706C255.477,238.49 257.246,239.013 256.859,240.71C256.593,241.874 254.718,242.457 253.679,242.68C252.292,242.98 251.186,241.96 251.459,240.722C251.738,239.474 253.094,239.049 254.159,238.706ZM249.129,240.659C252.16,240.503 251.387,244.413 249.129,243.899C247.742,243.583 247.041,241.535 249.129,240.659ZM243.839,243.537C245.03,243.484 246.11,244.183 245.819,245.519C245.486,247.05 243.808,247.353 242.639,248.003L240.959,249.098C240.381,249.458 239.757,249.82 239.049,249.659C238.166,249.458 237.587,248.567 237.779,247.679C238.175,245.87 242.183,244.072 243.839,243.537ZM232.802,251.459C236.258,251.284 234.763,256.451 232.329,255.899C230.416,255.462 230.567,252.352 232.802,251.459ZM308.409,256.979C309.734,256.912 310.811,257.836 310.895,259.199C310.962,260.277 309.954,261.179 308.889,260.939C307.559,260.637 305.896,258.03 308.409,256.979ZM270.249,261.779C273.28,261.623 272.507,265.533 270.249,265.019C268.862,264.702 268.161,262.655 270.249,261.779ZM265.209,263.459C268.24,263.303 267.467,267.213 265.209,266.699C263.822,266.382 263.121,264.335 265.209,263.459ZM312.729,263.459C314.178,263.387 315.39,264.496 315.662,265.919C315.887,267.098 314.865,268.158 313.682,267.899C312.306,267.594 309.95,264.623 312.729,263.459ZM260.639,266.31C263.903,266.289 262.782,270.359 260.164,269.896C258.868,269.666 258.148,268.295 258.962,267.213C259.389,266.644 259.991,266.478 260.639,266.31ZM316.329,268.497C317.313,268.418 318.361,268.708 318.957,269.57C319.698,270.647 319.137,271.938 317.989,272.222C315.93,272.728 313.413,269.733 316.329,268.497ZM267.359,274.185C270.357,273.974 274.845,276.506 277.439,277.912C278.754,278.625 280.089,279.035 281.013,280.341C281.848,281.522 281.562,281.742 281.572,282.959C281.562,283.478 281.699,283.864 281.572,284.399C281.217,286.041 279.482,287.548 278.159,288.438C274.242,291.081 275.423,290.402 271.199,292.079C270.225,292.466 268.6,293.159 267.599,293.255C263.183,293.67 258.489,290.92 255.292,288.119C254.279,287.234 252.393,285.962 252.597,284.399C252.808,282.803 254.934,281.721 256.079,280.73C258.278,278.824 261.266,275.531 263.999,274.586C265.034,274.228 266.258,274.334 267.359,274.185ZM325.209,275.699C326.207,275.649 327.227,276.074 327.726,277.002C328.254,277.984 327.707,279.172 326.629,279.419C324.76,279.846 322.345,276.897 325.209,275.699ZM270.959,280.559C269.178,278.02 268.444,278.066 265.919,279.58C265.194,280.014 262.734,281.428 264.167,282.477C264.693,282.861 265.631,282.448 266.159,282.234C267.856,281.553 269.171,281.03 270.959,280.559ZM332.409,279.038C333.381,278.884 334.408,279.088 335.037,279.933C335.788,280.943 335.214,282.251 334.069,282.542C331.933,283.084 329.507,280.365 332.409,279.038ZM242.649,285.059C245.68,284.903 244.907,288.813 242.649,288.299C241.262,287.982 240.561,285.935 242.649,285.059ZM239.519,288.659C240.705,288.602 241.792,289.302 241.499,290.637C241.233,291.844 238.955,293.135 237.839,293.342C236.659,293.562 235.6,292.55 235.859,291.359C236.164,289.967 238.295,289.084 239.519,288.659ZM235.199,293.697C238.78,293.538 236.884,298.206 234.489,297.659C232.773,297.266 232.499,294.628 235.199,293.697ZM263.049,299.915C263.682,299.781 263.831,299.769 264.479,299.759C267.635,299.718 269.519,299.853 272.639,300.345C274.715,300.671 276.77,301.197 278.879,301.199L281.279,301.199L287.999,301.679L291.839,301.919L295.919,301.919L298.319,302.138C299.812,302.222 302.284,301.314 303.357,302.733C303.65,303.119 303.767,303.594 303.659,304.07C303.376,305.306 302.231,305.428 301.199,305.531C297.534,306.014 297.993,305.524 294.959,305.531L291.119,305.531L287.279,305.279L281.279,304.809L278.399,304.809L266.639,303.359C265.202,303.357 261.189,303.794 261.779,301.209C261.952,300.45 262.413,300.21 263.049,299.915ZM240.009,302.075C241.653,301.73 242.289,302.121 243.839,302.33L249.599,303.138C250.646,303.326 252.021,303.587 252.299,304.809C252.585,306.059 251.459,306.89 250.319,306.894L244.799,306.066C243.679,305.932 240.707,305.697 239.783,305.277C238.334,304.619 238.233,302.898 240.009,302.075ZM268.809,305.435C270.33,305.118 271.384,305.541 272.879,305.723C277.043,306.227 279.498,306.969 283.439,308.277L293.999,311.169L300.239,312.141C302.282,312.47 305.589,312.906 307.439,313.571C308.301,313.878 309.434,314.385 309.659,315.369C309.909,316.463 308.999,317.397 307.919,317.392L304.799,316.648L299.999,315.808L293.039,314.721L285.839,312.789L275.039,309.71L268.809,308.723C267.952,308.428 267.323,307.674 267.539,306.729C267.712,305.97 268.173,305.73 268.809,305.435ZM239.769,309.275C242.147,308.774 242.733,309.383 244.799,309.777L248.159,310.341C249.143,310.533 250.362,310.886 250.619,312.009C250.902,313.257 249.779,314.094 248.639,314.094C247.278,314.092 243.599,313.137 242.159,312.842C241.293,312.664 240.271,312.806 239.543,312.477C238.12,311.838 237.967,310.113 239.769,309.275ZM254.409,312.155C256.384,311.759 257.298,312.76 258.959,313.59C261.486,314.855 261.856,314.982 264.479,315.839L276.719,320.193L282.239,321.945L288.239,324.431L293.279,326.142L301.679,329.027C302.781,329.44 304.326,329.881 304.619,331.201C304.886,332.406 303.822,333.376 302.639,333.189L299.519,332.044L293.039,329.877L286.319,327.551L281.279,325.458L275.519,323.593L271.919,322.185L269.519,321.474L265.919,320.125L261.119,318.609C259.29,317.893 257.565,316.948 255.839,316.026L253.773,315.117C252.484,314.109 253.125,312.75 254.409,312.155ZM247.689,315.537C249.383,315.357 251.685,316.237 253.199,316.981L256.799,318.707L260.879,321.616L267.839,324.935L269.999,326.289L273.359,328.017L283.439,332.579C286.588,334.151 287.634,335.128 290.399,336.935C291.369,337.569 292.96,338.097 292.619,339.589C292.394,340.578 291.352,341.094 290.399,340.936C289.622,340.804 288.438,339.988 287.759,339.544C286.034,338.413 284.082,336.877 282.239,335.975L269.999,330.417L265.199,327.664C262.36,326.241 260.054,325.564 257.279,323.581C255.239,322.122 253.876,321.121 251.519,320.128L247.25,318.633C245.826,317.668 246.208,316.168 247.689,315.537ZM339.119,605.998C340.021,606.505 341.951,607.57 342.141,608.648C342.325,609.682 340.554,613.582 340.017,614.638L338.02,618.718L334.53,626.398C333.961,627.325 333.165,628.265 332.397,629.036C330.957,630.473 327.083,633.538 326.742,635.518C326.435,637.309 328.487,638.41 329.759,639.229C331.026,640.045 333.834,641.391 335.279,641.777L337.199,642.178L341.759,643.306C342.654,643.4 343.283,643.095 344.159,642.999L347.279,642.651L350.879,641.83C353.085,641.513 355.372,641.494 357.599,641.518C359.224,641.537 360.803,641.95 362.399,642.219L365.279,642.641L372.239,644.662C372.906,644.825 374.44,645.197 375.04,644.864C375.822,644.432 377.106,641.693 377.471,640.798L378.534,638.158C379.11,636.284 379.24,634.316 379.545,632.398L380.399,628.078L383.759,629.038L382.905,633.358C382.194,637.858 382.074,639.977 379.777,644.158C378.642,646.227 377.973,648.14 375.359,648.586C373.936,648.826 369.669,647.59 368.159,647.12C365.485,646.287 359.586,644.912 356.879,644.878C352.542,644.828 352.122,645.279 348.239,646.004L344.879,646.39L342.479,646.789C340.696,646.865 339.383,646.364 337.679,645.927C334.425,645.092 333.378,645.063 330.239,643.496L326.879,641.535C324.261,639.843 323.202,638.811 323.281,635.518C323.332,633.481 323.925,632.953 325.113,631.438C327.517,628.371 329.022,627.692 330.88,625.438C332.322,623.689 333.99,619.081 335.005,616.798C336.573,613.28 338.937,609.963 339.119,605.998ZM299.039,625.678L298.799,625.678L299.039,625.918L299.039,625.678ZM223.679,259.919L223.329,257.759C222.374,252.465 222.199,250.466 222.703,245.039C222.854,243.398 222.981,241.317 223.42,239.759C224.433,236.176 228.316,230.198 231.119,227.81C232.996,226.211 234.038,226.547 236.159,226.214C237.633,225.983 237.902,225.799 239.519,225.844C240.851,225.88 240.983,226.12 242.159,226.396C245.838,227.267 245.452,227.222 248.879,228.611L253.199,230.162C256.446,231.537 259.792,234.16 261.359,237.359C268.946,234.143 279.35,234.465 287.519,234.479C290.2,234.484 290.855,235.413 292.079,235.113C293.046,234.878 295.962,232.963 297.119,232.379C300.431,230.707 308.164,226.967 311.519,226.24C315.623,225.35 318.174,226.187 322.079,227.243C326.975,228.568 328.837,229.603 333.119,232.209C334.799,233.231 336.419,234.191 337.919,235.49C339.721,237.047 344.214,242.301 345.7,244.319L347.656,247.199C348.889,248.951 350.145,250.154 350.97,252.239L352.465,256.319C352.677,257.294 352.372,258.542 352.84,259.398L354.395,261.359C356.044,264.093 357.541,267.078 358.833,269.999L360.165,273.599C362.313,279.515 363.09,282.894 364.42,288.959L365.86,295.439L368.015,306.719C368.176,307.521 368.915,310.898 368.713,311.469C368.401,312.359 366.371,312.969 365.519,313.199L364.211,306.239L363.505,303.119C362.027,294.976 360.505,286.833 358.18,278.879C357.395,276.196 355.773,271.756 354.539,269.279C353.893,267.988 353.387,266.678 352.319,265.679L351.916,269.519L351.085,271.919C349.852,275.404 348.88,277.955 346.696,281.018C346.005,281.99 343.593,284.433 342.479,284.675C341.958,284.843 341.764,284.75 341.279,284.675C340.542,285.77 338.579,285.954 337.595,284.963C336.705,284.066 337.074,282.738 338.183,282.242C338.478,282.11 338.8,282.05 339.119,282.028C339.702,281.987 340.014,282.086 340.559,282.239C341.461,280.629 342.976,280.262 345.165,276.719C345.832,275.642 347.951,270.323 348.263,269.039C348.544,267.887 348.417,267.64 348.549,266.639C348.863,264.244 349.23,264.16 349.199,261.359L348.865,257.039L347.394,253.199L343.725,247.919C340.926,243.856 336.649,238.965 332.639,236.109L329.759,234.383L326.639,232.634C324.894,231.842 322.962,231.29 321.119,230.779C319.525,230.335 316.456,229.459 314.879,229.459C312.263,229.459 309.318,230.731 306.959,231.736C304.545,232.766 300.237,234.715 298.079,236.047L295.773,237.477C295.175,238.019 295.062,238.67 294.215,239.032C292.49,239.769 289.29,238.106 287.279,238.079L278.399,238.079L272.879,238.519L270.959,238.67L264.479,239.975C263.478,240.287 262.101,241.204 261.119,241.022C258.35,240.506 257.884,237.662 254.879,235.379C252.129,233.291 251.332,233.414 248.399,232.271C244.907,230.911 245.188,230.879 241.439,229.946C240.727,229.766 240.019,229.497 239.279,229.471C238.439,229.439 237.487,229.739 236.639,229.85L234.719,230.056C233.282,230.469 231.307,233.003 230.443,234.239C229.348,235.802 227.803,238.216 227.171,239.999C226.612,241.574 226.082,246.873 226.079,248.639C226.075,251.464 226.144,253.516 226.718,256.319C227.066,258.009 227.512,259.528 225.839,260.639C226.243,262.787 224.716,263.86 223.591,265.439C222.158,267.45 219.467,272.358 219.395,274.799L219.395,277.43C219.153,278.466 218.284,278.596 217.754,279.609C217.384,280.314 217.533,280.893 216.638,282.479L214.809,285.578C214.353,286.247 213.911,286.518 213.532,287.289C212.683,289.012 213.563,290.322 212.486,291.738L209.191,295.576L207.4,297.189C206.248,298.322 205.123,299.956 204.479,301.439C206.632,299.793 207.609,299.63 209.999,298.744C210.957,298.389 211.84,297.923 212.879,297.866C214.658,297.762 216.777,298.533 218.399,299.169C221.519,300.388 222.153,300.364 225.119,302.397C227.366,303.938 228.335,301.881 229.699,304.329C229.996,304.864 230.155,305.385 230.056,305.999C229.96,306.604 229.427,307.586 229.139,308.159C227.371,311.697 225.779,312.779 222.239,314.452L217.439,316.65C214.293,317.62 211.118,316.941 208.319,315.359C207.806,315.069 207.146,314.714 206.731,314.306C206.102,313.689 204.969,311.646 204.479,310.799L203.769,314.639C203.692,316.581 204.419,317.519 205.259,319.199C206.606,321.892 208.723,324.39 211.267,326.056L213.599,327.325C214.312,327.724 215.251,328.35 215.999,328.595L223.919,329.795C226.298,330.467 228.599,332.185 229.679,332.507L234.479,333.573L239.039,334.737L244.319,336.532L246.959,337.165C249.021,337.89 253.665,340.216 255.095,341.761C257.442,344.303 255.369,345.678 254.159,345.419C253.118,345.193 252.15,343.972 251.279,343.353L246.719,341.039C247.792,343.487 247.763,345.189 247.941,347.759L248.159,350.159C248.19,352.821 248.303,356.195 248.742,358.799C249.131,361.093 249.736,361.593 250.156,363.359C251.003,366.918 252.196,375.136 252.239,378.719L252.239,382.079L252.479,387.359C252.474,390.174 252.002,390.424 251.02,392.879L249.335,397.439C248.786,399.167 248.898,400.715 248.879,402.479L247.439,415.919L245.387,424.319L244.399,432.479L242.246,440.639C241.617,443.55 241.403,449.555 241.439,452.639L241.919,456.959L241.919,459.119L243.297,467.759L245.539,478.079L247.953,483.599L251.361,493.199L252.52,504.479L254.159,516.959L254.409,521.759L254.409,523.919L255.498,528.958L256.799,537.838L257.258,544.318L257.385,546.958L259.137,555.358L260.546,563.998C261.314,568.069 262.552,572.053 262.559,576.238L262.559,580.318L263.759,593.038C263.764,595.878 263.793,597.401 263.123,600.238L260.325,608.158L258.554,611.758L257.68,614.158L255.928,617.758C255.045,619.525 254.306,621.353 253.859,623.278C253.473,624.934 254.056,625.335 252.959,626.158C253.401,626.991 253.71,627.608 254.421,628.268C255.731,629.482 257.723,629.974 259.439,630.248C262.468,630.759 265.295,630.243 268.319,630.248L272.399,630.001L275.759,630.238L281.519,629.998C282.962,629.996 286.485,629.972 287.759,629.605C288.522,629.386 289.895,628.539 290.639,628.114C293.291,626.6 293.435,626.636 295.47,624.238C296.008,623.602 296.469,623.084 296.829,622.318C297.575,620.732 297.525,618.963 297.767,618.238C298.041,617.417 298.602,616.904 298.914,615.838C299.231,614.753 299.051,613.815 299.039,612.718L299.039,608.878L299.927,596.638L299.759,591.118L299.999,587.758C300.028,585.32 299.855,584.502 300.398,581.998C300.796,580.158 301.78,577.076 301.655,575.278C301.54,573.586 299.409,568.614 298.718,566.638C298.384,565.69 297.698,564.51 297.839,563.518C298.931,565.417 300.926,567.997 302.298,569.758C303.018,570.685 304.401,572.334 304.802,573.358C305.126,574.184 305.315,575.821 305.27,576.718L303.813,582.718C303.246,585.171 303.371,586.059 303.359,588.478L303.119,592.078L303.119,599.518L302.43,609.358L302.43,614.398C302.32,618.233 301.497,618.437 300.722,621.838C300.311,623.633 300.299,625.426 298.799,626.638L298.799,625.918C295.514,629.492 296.464,628.779 292.319,631.201C291.237,631.834 289.941,632.71 288.719,632.991C287.939,633.171 286.898,633.109 286.079,633.118L283.679,633.358L281.039,633.358L278.159,633.598L274.559,633.598L271.919,633.377L269.039,633.598L264.479,633.838L260.639,633.838C256.473,633.788 250.804,631.899 249.762,627.358C249.561,626.482 249.75,623.408 249.99,622.558L253.725,614.398L255.434,610.078L257.205,606.478L258.645,602.638C260.082,598.601 260.45,597.121 260.399,592.798L259.72,586.798L259.199,580.798L259.199,576.478C259.151,572.516 257.92,568.578 257.147,564.718L255.738,556.078L254.5,550.558L253.91,546.718L253.91,544.558L253.439,538.558L252.266,530.398C251.798,528.325 251.289,526.832 251.049,524.639L251.049,522.479L250.799,517.919L249.16,504.959L248.241,496.079C247.458,492.234 247.137,491.888 245.865,488.399L244.456,484.559L241.727,478.079L239.853,469.199L238.903,464.399L238.298,457.919L237.839,453.119L237.839,448.559L238.058,446.159C238.197,444.124 238.209,442.177 238.627,440.159L240.799,431.759L241.787,423.599L243.731,415.919L245.279,401.999C245.311,399.301 245.159,398.19 246.129,395.519L247.521,391.919C248.433,389.778 248.867,389.346 248.879,386.879L248.639,382.799L248.639,379.439L247.226,366.959L246.299,363.119L245.361,360.479C244.953,358.804 244.581,354.561 244.559,352.799L244.341,348.479C244.118,345.21 244.173,342.513 241.775,339.892C241.003,339.047 239.188,338.579 238.079,338.262L229.199,336.136C226.624,335.538 225.65,334.096 222.719,333.225C220.855,332.67 220.456,333.013 219.119,332.829L217.679,332.473C216.988,332.457 216.861,332.625 215.999,332.473C214.24,332.001 209.546,329.454 208.079,328.343C207.093,327.597 206.541,327.018 205.679,326.159C205.192,327.688 204.083,328.77 203.087,329.999C200.671,332.977 199.327,333.882 197.457,337.439L196.204,339.599L193.007,346.079L188.935,353.279C188.474,354.505 188.243,356.361 186.717,356.699C185.627,356.939 184.663,356.049 184.699,354.959C184.737,353.913 186.033,350.937 186.539,349.919L191.205,341.999L193.262,337.439C194.966,334.168 196.199,332.325 198.619,329.519L202.01,325.439C202.351,325.002 203.135,323.965 203.179,323.418C203.229,322.775 202.667,322.089 202.319,321.599C201.422,323.459 200.373,323.339 198.719,324.246L196.079,326.017L191.759,329.106C189.201,331.009 188.987,331.912 188.311,332.483C187.022,333.568 185.486,332.836 185.219,331.669C184.919,330.349 187.022,328.218 187.919,327.429C189.549,325.991 195.386,321.892 197.279,320.939C198.897,320.123 199.826,319.355 201.599,320.159C200.176,316.857 199.723,316.261 200.399,312.479L198.239,313.689C194.685,315.242 189.645,315.4 185.759,315.906C181.003,316.528 178.135,317.176 173.52,318.328L166.8,319.78C165.984,319.806 165.244,319.276 165.06,318.469C164.812,317.377 165.65,316.588 166.564,316.194L173.52,314.608L177.599,313.518L185.039,312.306C187.864,311.958 192.575,311.675 195.119,310.89L198.959,309.225C199.545,309.009 200.517,308.824 200.875,308.296C201.203,307.811 201.119,306.599 201.119,305.999C199.795,305.759 199.564,305.471 198.479,305.157L196.799,304.845L193.679,303.894C191.865,303.628 189.127,303.818 187.199,303.894L184.799,304.058C176.995,304.595 174.544,305.176 167.04,307.058L161.28,308.346C160.432,308.591 158.277,309.539 157.461,309.954C156.945,310.221 156.278,310.749 155.75,310.859C154.029,311.222 152.772,308.853 154.61,307.43C154.984,307.142 156.014,306.65 156.48,306.422C159.069,305.147 161.824,304.35 164.64,303.758L166.56,303.419L174.72,301.571L177.359,301.029L181.439,300.678L186.479,300.239L191.519,300.042L197.279,300.705L200.639,302.159C201.028,299.416 202.867,296.495 204.789,294.546C205.917,293.404 208.468,290.999 209.176,289.679C209.819,288.482 209.891,285.318 210.04,283.919C210.311,281.387 211.343,279.074 213.599,277.782C214.439,277.3 214.809,277.137 215.815,276.959C215.759,275.954 215.702,274.022 215.815,273.119C216.304,270.815 218.743,266.27 220.036,264.239C220.943,262.816 222.244,260.814 223.679,259.919ZM312.719,231.943C313.602,231.827 315.47,231.748 316.319,231.943C317.219,232.127 322.223,234.532 323.039,235.111L327.839,238.826C330.489,240.597 332.79,240.799 334.799,241.871C338.557,243.875 341.461,247.257 343.35,251.039C344.135,252.609 344.049,253.079 344.43,254.639C345.493,258.995 345.618,257.603 345.057,262.319C344.903,263.618 345.217,266.238 342.961,265.739C340.201,265.127 341.742,261.021 341.74,259.199C341.74,258.09 341.293,256.914 341.01,255.839L340.401,253.439C339.707,251.565 337.667,248.836 336.237,247.449C332.764,244.089 329.68,244.252 326.159,242.155C322.434,239.937 321.781,238.007 317.039,236.111C316.307,235.819 315.676,235.531 314.879,235.466C313.264,235.331 311.598,235.999 310.319,236.939C309.45,237.578 308.138,238.883 306.969,238.619C306.086,238.418 305.507,237.527 305.699,236.639C306.165,234.487 310.722,232.42 312.719,231.943ZM254.159,238.706C255.477,238.49 257.246,239.013 256.859,240.71C256.593,241.874 254.718,242.457 253.679,242.68C252.292,242.98 251.186,241.96 251.459,240.722C251.738,239.474 253.094,239.049 254.159,238.706ZM249.129,240.659C252.16,240.503 251.387,244.413 249.129,243.899C247.742,243.583 247.041,241.535 249.129,240.659ZM243.839,243.537C245.03,243.484 246.11,244.183 245.819,245.519C245.486,247.05 243.808,247.353 242.639,248.003L240.959,249.098C240.381,249.458 239.757,249.82 239.049,249.659C238.166,249.458 237.587,248.567 237.779,247.679C238.175,245.87 242.183,244.072 243.839,243.537ZM232.802,251.459C236.258,251.284 234.763,256.451 232.329,255.899C230.416,255.462 230.567,252.352 232.802,251.459ZM308.409,256.979C309.734,256.912 310.811,257.836 310.895,259.199C310.962,260.277 309.954,261.179 308.889,260.939C307.559,260.637 305.896,258.03 308.409,256.979ZM270.249,261.779C273.28,261.623 272.507,265.533 270.249,265.019C268.862,264.702 268.161,262.655 270.249,261.779ZM265.209,263.459C268.24,263.303 267.467,267.213 265.209,266.699C263.822,266.382 263.121,264.335 265.209,263.459ZM312.729,263.459C314.178,263.387 315.39,264.496 315.662,265.919C315.887,267.098 314.865,268.158 313.682,267.899C312.306,267.594 309.95,264.623 312.729,263.459ZM260.639,266.31C263.903,266.289 262.782,270.359 260.164,269.896C258.868,269.666 258.148,268.295 258.962,267.213C259.389,266.644 259.991,266.478 260.639,266.31ZM316.329,268.497C317.313,268.418 318.361,268.708 318.957,269.57C319.698,270.647 319.137,271.938 317.989,272.222C315.93,272.728 313.413,269.733 316.329,268.497ZM267.359,274.185C270.357,273.974 274.845,276.506 277.439,277.912C278.754,278.625 280.089,279.035 281.013,280.341C281.848,281.522 281.562,281.742 281.572,282.959C281.562,283.478 281.699,283.864 281.572,284.399C281.217,286.041 279.482,287.548 278.159,288.438C274.242,291.081 275.423,290.402 271.199,292.079C270.225,292.466 268.6,293.159 267.599,293.255C263.183,293.67 258.489,290.92 255.292,288.119C254.279,287.234 252.393,285.962 252.597,284.399C252.808,282.803 254.934,281.721 256.079,280.73C258.278,278.824 261.266,275.531 263.999,274.586C265.034,274.228 266.258,274.334 267.359,274.185ZM325.209,275.699C326.207,275.649 327.227,276.074 327.726,277.002C328.254,277.984 327.707,279.172 326.629,279.419C324.76,279.846 322.345,276.897 325.209,275.699ZM270.959,280.559C269.178,278.02 268.444,278.066 265.919,279.58C265.194,280.014 262.734,281.428 264.167,282.477C264.693,282.861 265.631,282.448 266.159,282.234C267.856,281.553 269.171,281.03 270.959,280.559ZM332.409,279.038C333.381,278.884 334.408,279.088 335.037,279.933C335.788,280.943 335.214,282.251 334.069,282.542C331.933,283.084 329.507,280.365 332.409,279.038ZM242.649,285.059C245.68,284.903 244.907,288.813 242.649,288.299C241.262,287.982 240.561,285.935 242.649,285.059ZM239.519,288.659C240.705,288.602 241.792,289.302 241.499,290.637C241.233,291.844 238.955,293.135 237.839,293.342C236.659,293.562 235.6,292.55 235.859,291.359C236.164,289.967 238.295,289.084 239.519,288.659ZM235.199,293.697C238.78,293.538 236.884,298.206 234.489,297.659C232.773,297.266 232.499,294.628 235.199,293.697ZM263.049,299.915C263.682,299.781 263.831,299.769 264.479,299.759C267.635,299.718 269.519,299.853 272.639,300.345C274.715,300.671 276.77,301.197 278.879,301.199L281.279,301.199L287.999,301.679L291.839,301.919L295.919,301.919L298.319,302.138C299.812,302.222 302.284,301.314 303.357,302.733C303.65,303.119 303.767,303.594 303.659,304.07C303.376,305.306 302.231,305.428 301.199,305.531C297.534,306.014 297.993,305.524 294.959,305.531L291.119,305.531L287.279,305.279L281.279,304.809L278.399,304.809L266.639,303.359C265.202,303.357 261.189,303.794 261.779,301.209C261.952,300.45 262.413,300.21 263.049,299.915ZM240.009,302.075C241.653,301.73 242.289,302.121 243.839,302.33L249.599,303.138C250.646,303.326 252.021,303.587 252.299,304.809C252.585,306.059 251.459,306.89 250.319,306.894L244.799,306.066C243.679,305.932 240.707,305.697 239.783,305.277C238.334,304.619 238.233,302.898 240.009,302.075ZM268.809,305.435C270.33,305.118 271.384,305.541 272.879,305.723C277.043,306.227 279.498,306.969 283.439,308.277L293.999,311.169L300.239,312.141C302.282,312.47 305.589,312.906 307.439,313.571C308.301,313.878 309.434,314.385 309.659,315.369C309.909,316.463 308.999,317.397 307.919,317.392L304.799,316.648L299.999,315.808L293.039,314.721L285.839,312.789L275.039,309.71L268.809,308.723C267.952,308.428 267.323,307.674 267.539,306.729C267.712,305.97 268.173,305.73 268.809,305.435ZM239.769,309.275C242.147,308.774 242.733,309.383 244.799,309.777L248.159,310.341C249.143,310.533 250.362,310.886 250.619,312.009C250.902,313.257 249.779,314.094 248.639,314.094C247.278,314.092 243.599,313.137 242.159,312.842C241.293,312.664 240.271,312.806 239.543,312.477C238.12,311.838 237.967,310.113 239.769,309.275ZM254.409,312.155C256.384,311.759 257.298,312.76 258.959,313.59C261.486,314.855 261.856,314.982 264.479,315.839L276.719,320.193L282.239,321.945L288.239,324.431L293.279,326.142L301.679,329.027C302.781,329.44 304.326,329.881 304.619,331.201C304.886,332.406 303.822,333.376 302.639,333.189L299.519,332.044L293.039,329.877L286.319,327.551L281.279,325.458L275.519,323.593L271.919,322.185L269.519,321.474L265.919,320.125L261.119,318.609C259.29,317.893 257.565,316.948 255.839,316.026L253.773,315.117C252.484,314.109 253.125,312.75 254.409,312.155ZM247.689,315.537C249.383,315.357 251.685,316.237 253.199,316.981L256.799,318.707L260.879,321.616L267.839,324.935L269.999,326.289L273.359,328.017L283.439,332.579C286.588,334.151 287.634,335.128 290.399,336.935C291.369,337.569 292.96,338.097 292.619,339.589C292.394,340.578 291.352,341.094 290.399,340.936C289.622,340.804 288.438,339.988 287.759,339.544C286.034,338.413 284.082,336.877 282.239,335.975L269.999,330.417L265.199,327.664C262.36,326.241 260.054,325.564 257.279,323.581C255.239,322.122 253.876,321.121 251.519,320.128L247.25,318.633C245.826,317.668 246.208,316.168 247.689,315.537ZM339.119,605.998C340.021,606.505 341.951,607.57 342.141,608.648C342.325,609.682 340.554,613.582 340.017,614.638L338.02,618.718L334.53,626.398C333.961,627.325 333.165,628.265 332.397,629.036C330.957,630.473 327.083,633.538 326.742,635.518C326.435,637.309 328.487,638.41 329.759,639.229C331.026,640.045 333.834,641.391 335.279,641.777L337.199,642.178L341.759,643.306C342.654,643.4 343.283,643.095 344.159,642.999L347.279,642.651L350.879,641.83C353.085,641.513 355.372,641.494 357.599,641.518C359.224,641.537 360.803,641.95 362.399,642.219L365.279,642.641L372.239,644.662C372.906,644.825 374.44,645.197 375.04,644.864C375.822,644.432 377.106,641.693 377.471,640.798L378.534,638.158C379.11,636.284 379.24,634.316 379.545,632.398L380.399,628.078L383.759,629.038L382.905,633.358C382.194,637.858 382.074,639.977 379.777,644.158C378.642,646.227 377.973,648.14 375.359,648.586C373.936,648.826 369.669,647.59 368.159,647.12C365.485,646.287 359.586,644.912 356.879,644.878C352.542,644.828 352.122,645.279 348.239,646.004L344.879,646.39L342.479,646.789C340.696,646.865 339.383,646.364 337.679,645.927C334.425,645.092 333.378,645.063 330.239,643.496L326.879,641.535C324.261,639.843 323.202,638.811 323.281,635.518C323.332,633.481 323.925,632.953 325.113,631.438C327.517,628.371 329.022,627.692 330.88,625.438C332.322,623.689 333.99,619.081 335.005,616.798C336.573,613.28 338.937,609.963 339.119,605.998ZM299.039,625.678L298.799,625.678L299.039,625.918L299.039,625.678Z" style="fill:rgb(6,0,255);fill-rule:nonzero;stroke:rgb(21,0,255);stroke-width:2.72px;"/>
        </g>
    </g>
</svg>
